<?xml version="1.0" encoding="UTF-8"?>
<svg xmlns="http://www.w3.org/2000/svg" xmlns:xlink="http://www.w3.org/1999/xlink" width="35pt" height="37pt" viewBox="0 0 35 37" version="1.1">
<g id="surface1">
<path style=" stroke:none;fill-rule:nonzero;fill:rgb(0%,0%,0%);fill-opacity:1;" d="M 7.785156 15.542969 L 0.0859375 26.808594 C -0.136719 27.167969 0.09375 27.636719 0.519531 27.683594 L 15.707031 29.277344 Z M 0.539062 22.792969 L 6.03125 13.953125 L 0.441406 10.628906 C 0.246094 10.515625 0 10.652344 0 10.878906 L 0 22.644531 C 0 22.933594 0.386719 23.042969 0.539062 22.792969 Z M 1.332031 30.613281 L 15.503906 36.945312 C 15.890625 37.125 16.332031 36.84375 16.332031 36.421875 L 16.332031 31.675781 L 1.492188 30.066406 C 1.167969 30.027344 1.035156 30.46875 1.332031 30.613281 Z M 7.253906 11.984375 L 13.082031 1.652344 C 13.398438 1.144531 12.820312 0.550781 12.296875 0.847656 L 1.296875 7.972656 C 1.117188 8.089844 1.125 8.355469 1.308594 8.464844 Z M 17.5 12.71875 L 25.464844 12.71875 L 18.492188 0.550781 C 18.265625 0.183594 17.882812 0 17.5 0 C 17.117188 0 16.734375 0.183594 16.507812 0.550781 L 9.535156 12.71875 Z M 34.558594 10.628906 L 28.96875 13.953125 L 34.460938 22.796875 C 34.613281 23.042969 35 22.9375 35 22.644531 L 35 10.878906 C 35 10.652344 34.753906 10.515625 34.558594 10.628906 Z M 27.746094 11.984375 L 33.691406 8.464844 C 33.875 8.355469 33.882812 8.089844 33.703125 7.972656 L 22.703125 0.847656 C 22.179688 0.550781 21.601562 1.144531 21.917969 1.652344 Z M 33.507812 30.066406 L 18.667969 31.675781 L 18.667969 36.421875 C 18.667969 36.84375 19.109375 37.121094 19.496094 36.945312 L 33.667969 30.609375 C 33.964844 30.46875 33.832031 30.027344 33.507812 30.066406 Z M 27.214844 15.542969 L 19.296875 29.277344 L 34.480469 27.683594 C 34.90625 27.636719 35.136719 27.167969 34.914062 26.808594 Z M 17.5 15.03125 L 10.175781 15.03125 L 17.5 27.730469 L 24.824219 15.03125 Z M 17.5 15.03125 "/>
</g>
</svg>
